<?xml version="1.0" encoding="UTF-8"?>
<svg id="_レイヤー_1" data-name="レイヤー_1" xmlns="http://www.w3.org/2000/svg" version="1.1" viewBox="0 0 512 512">
  <!-- Generator: Adobe Illustrator 29.2.1, SVG Export Plug-In . SVG Version: 2.1.0 Build 116)  -->
  <defs>
    <style>
      .st0, .st1 {
        fill: #fff;
      }

      .st1 {
        font-family: Impact, Impact;
        font-size: 60.33px;
      }

      .st2 {
        fill: none;
        stroke: #fff;
        stroke-miterlimit: 10;
        stroke-width: 11px;
      }
    </style>
  </defs>
  <text class="st1" transform="translate(207.16 494.55)"><tspan x="0" y="0">OchaMedia</tspan></text>
  <polygon class="st2" points="191.71 163.48 152.35 16.58 44.82 124.12 191.71 163.48"/>
  <polygon class="st2" points="164.58 245.71 32.88 169.67 32.88 321.74 164.58 245.71"/>
  <path class="st0" d="M307.42,258.23c-4.54,10.04-14.64,17.03-26.38,17.03-15.98,0-28.94-12.96-28.94-28.94s12.96-28.94,28.94-28.94c11.74,0,21.83,6.99,26.38,17.03h27.31c-5.44-24.64-27.41-43.08-53.69-43.08-30.37,0-54.99,24.62-54.99,54.99s24.62,54.99,54.99,54.99c26.28,0,48.25-18.44,53.69-43.08h-27.31Z"/>
  <path class="st0" d="M281.05,338.94c-47.11,0-86.01-35.18-91.85-80.7h5.84c5.8,42.31,42.09,74.91,86,74.91s80.2-32.6,86-74.91h-26.4c-5.54,27.86-30.12,48.87-59.6,48.87-33.56,0-60.77-27.21-60.77-60.77s27.21-60.77,60.77-60.77c29.49,0,54.07,21,59.6,48.87h26.4c-5.8-42.31-42.09-74.91-86-74.91s-80.2,32.6-86,74.91h-5.84c5.84-45.52,44.74-80.7,91.85-80.7s86.01,35.18,91.85,80.7h26.21c-5.97-59.94-56.55-106.75-118.06-106.75-65.53,0-118.65,53.12-118.65,118.65s53.12,118.65,118.65,118.65c61.51,0,112.09-46.81,118.06-106.75h-26.21c-5.84,45.52-44.74,80.7-91.85,80.7Z"/>
  <path class="st0" d="M281.05,402.6c-82.3,0-149.74-63.62-155.83-144.37h5.81c6.07,77.55,70.92,138.58,150.02,138.58s143.95-61.04,150.02-138.58h-26.15c-5.99,63.14-59.16,112.54-123.87,112.54-68.73,0-124.44-55.71-124.44-124.44s55.71-124.44,124.44-124.44c64.71,0,117.88,49.39,123.87,112.54h58.05c-6.14-95.14-85.23-170.42-181.92-170.42S98.73,145.63,98.73,246.33s81.63,182.32,182.32,182.32,175.79-75.27,181.92-170.42h-26.1c-6.08,80.75-73.52,144.37-155.83,144.37ZM281.05,90.05c74.02,0,136.01,51.46,152.16,120.56h-5.95c-16.04-65.87-75.41-114.77-146.21-114.77-79.1,0-143.95,61.04-150.02,138.58h-5.81c6.08-80.75,73.52-144.37,155.83-144.37Z"/>
  <polygon class="st0" points="191.26 327.94 44.37 367.3 151.91 474.83 191.26 327.94"/>
</svg>