<?xml version="1.0" encoding="utf-8"?>
<!-- Generator: Adobe Illustrator 27.6.1, SVG Export Plug-In . SVG Version: 6.00 Build 0)  -->
<svg version="1.1" id="レイヤー_1" xmlns="http://www.w3.org/2000/svg" xmlns:xlink="http://www.w3.org/1999/xlink" x="0px"
	 y="0px" viewBox="0 0 512 512" style="enable-background:new 0 0 512 512;" xml:space="preserve">
<style type="text/css">
	.st0{fill:#FFFFFF;}
</style>
<g>
	<rect x="240.2" y="235" class="st0" width="39.1" height="34.4"/>
	<path class="st0" d="M256,31.4c-122.7,0-222.1,99.4-222.1,222.1S133.3,475.7,256,475.7s222.1-99.4,222.1-222.1S378.7,31.4,256,31.4
		z M360.2,208.2l8.1,9.3l-7,4.6l-7.7-9.3L360.2,208.2z M210,298.8c-4.1-2.1-7.6-4.3-10.5-6.6c-2.8-2.3-5.3-4.5-7.4-6.6
		c-3.9,4.1-9.9,8.6-18.2,13.5l-9.7-12.8c3.1-1,6.6-2.7,10.5-5c4.9-3.1,7.6-5.3,8.1-6.6c-5.7-7.7-9.8-15.9-12.4-24.4l-0.8,12.8
		c-0.3,5.2-1.8,11.5-4.6,19c-2.6,7.2-5.2,12.5-7.7,15.9l-9.3-10.8v10.5h-13.5v-43.4c-1,2.1-2.5,4.3-4.3,6.6l-6.6-14.3
		c4.1-4.4,8.1-10.8,12-19.4c3.1-7.5,5.2-13.9,6.2-19.4l13.2,4.3c-1.8,6.5-4.1,12.5-7,18.2v53.8c4.9-7.5,7.5-14.8,7.7-22.1l0.8-9.3
		v-41h57.7v12h-43.7V235h39.1v3.1c0,9.8-1,17.6-3.1,23.2c-2.1,6.2-4.1,10.8-6.2,13.9c2.6,2.3,5.3,4.4,8.1,6.2
		c2.8,1.8,5.8,3.4,8.9,4.6L210,298.8z M293.6,288h-14.3v-5h-39.1v5h-14.3v-66.6h67.7V288z M372.2,287.2h-14.3v-3.9h-53.8v-13.5h53.8
		v-32.9h-52.6v-13.5h67V287.2z M375.7,222.6l-7.4-9.7l6.6-4.6l7.4,9.3L375.7,222.6z"/>
	<path class="st0" d="M191.1,264.4c2.6-3.6,4.1-9.3,4.6-17h-13.2C183.8,253,186.7,258.7,191.1,264.4z"/>
</g>
</svg>
